<svg xmlns="http://www.w3.org/2000/svg" viewBox="0 0 126.21 126.21"><defs><style>.cls-1{fill:#10212e;}</style></defs><g id="Layer_2" data-name="Layer 2"><g id="Layer_1-2" data-name="Layer 1"><path class="cls-1" d="M63.1,0A62.83,62.83,0,0,0,52.5.91a10.62,10.62,0,0,1,.18,1.89V43.52a10.43,10.43,0,0,0,20.85,0V37.71A10.43,10.43,0,0,1,84,27.28h2.22A9.76,9.76,0,0,1,95.94,37v80A63.11,63.11,0,0,0,63.1,0Z"/><path class="cls-1" d="M63.1,73.45A10.42,10.42,0,0,0,52.68,83.88v5.6A10.43,10.43,0,0,1,42.25,99.91H40.69A10.43,10.43,0,0,1,30.26,89.48V9.21A63.09,63.09,0,0,0,73.53,125.33V83.88A10.43,10.43,0,0,0,63.1,73.45Z"/></g></g></svg>