<svg xmlns="http://www.w3.org/2000/svg" viewBox="0 0 371.57 75.97"><defs><style>.cls-1{fill:#10212e;}</style></defs><g id="Layer_2" data-name="Layer 2"><g id="Layer_1-2" data-name="Layer 1"><path class="cls-1" d="M0,65.52V11.18a9.4,9.4,0,0,1,9.4-9.4h0a9.4,9.4,0,0,1,9.41,9.4v9.51a9.4,9.4,0,0,0,9.4,9.4h7.32a9.4,9.4,0,0,0,9.4-9.4V11.18a9.4,9.4,0,0,1,9.41-9.4h0a9.4,9.4,0,0,1,9.4,9.4V65.52a9.4,9.4,0,0,1-9.4,9.4h0a9.4,9.4,0,0,1-9.41-9.4v-9.3a9.4,9.4,0,0,0-9.4-9.41H28.21a9.4,9.4,0,0,0-9.4,9.41v9.3a9.4,9.4,0,0,1-9.41,9.4h0A9.4,9.4,0,0,1,0,65.52Z"/><path class="cls-1" d="M71.61,63.25,93.14,9.05a11.52,11.52,0,0,1,10.71-7.27h0a11.51,11.51,0,0,1,10.72,7.31L135.75,63a8.75,8.75,0,0,1-8.14,11.94h0a8.74,8.74,0,0,1-8.2-5.71l-2.8-7.56H90.38l-2.85,7.7a8.5,8.5,0,0,1-8,5.57h0A8.53,8.53,0,0,1,71.61,63.25ZM98.74,39.08l-2.09,5.6a2.28,2.28,0,0,0,2.14,3.07h9.41a2.28,2.28,0,0,0,2.13-3.08l-2.18-5.8q-1.16-3.34-2.35-6.79c0-.1-.07-.19-.1-.29a2.28,2.28,0,0,0-4.32,0l0,.07Q100.21,35.22,98.74,39.08Z"/><path class="cls-1" d="M201.09,74.92A9.14,9.14,0,0,1,192,65.78V51.51c0-2.57,0-4.84.1-6.79s.2-4,.37-6.06V38.6a2.13,2.13,0,0,0-3.83-1.44L164.1,70.33a11.3,11.3,0,0,1-9.1,4.59h0A11.32,11.32,0,0,1,143.68,63.6V10.92a9.14,9.14,0,0,1,9.14-9.14h0A9.14,9.14,0,0,1,162,10.92v7.89q0,6.06-.1,10.66c-.07,3.06-.23,5.94-.47,8.62,0,.27,0,.55-.08.83a2.12,2.12,0,0,0,3.82,1.46l24.94-34a11.16,11.16,0,0,1,9-4.56h0a11.16,11.16,0,0,1,11.17,11.16V65.78a9.15,9.15,0,0,1-9.15,9.14Z"/><path class="cls-1" d="M257.15,76q-11.91,0-20.58-5a34.53,34.53,0,0,1-13.38-13.53A39.76,39.76,0,0,1,218.49,38a39.2,39.2,0,0,1,2.87-15.1,34.59,34.59,0,0,1,8.21-12A38,38,0,0,1,242.16,3a44,44,0,0,1,16-2.82,40.11,40.11,0,0,1,16.72,3.4,43.44,43.44,0,0,1,4.25,2.2,8.38,8.38,0,0,1,1.67,13h0a8.47,8.47,0,0,1-10.62,1.32c-.82-.5-1.66-1-2.51-1.38A22,22,0,0,0,258,16.61a19.75,19.75,0,0,0-10.35,2.77A20,20,0,0,0,240.38,27a22.64,22.64,0,0,0-2.66,11A21.62,21.62,0,0,0,240.49,49a20.56,20.56,0,0,0,7.57,7.67,20.79,20.79,0,0,0,10.76,2.83A15.93,15.93,0,0,0,269,56.11l.09-.06a4.75,4.75,0,0,0-3.06-8.4h-2.57a7.16,7.16,0,0,1-7.15-7.16h0a7.16,7.16,0,0,1,7.15-7.16h24.59a3.37,3.37,0,0,1,3.36,3.2v0c.06,1.4.12,2.77.15,4.13s.05,2.35.05,3a30.78,30.78,0,0,1-16.77,28.16A37.24,37.24,0,0,1,257.15,76Z"/><path class="cls-1" d="M333.33,76a40.27,40.27,0,0,1-15.26-2.83A35.73,35.73,0,0,1,306,65.2a36.21,36.21,0,0,1-7.94-12A39.68,39.68,0,0,1,295.19,38,40.06,40.06,0,0,1,298,22.83a35.62,35.62,0,0,1,20.06-20,43,43,0,0,1,30.62,0,35.62,35.62,0,0,1,20.06,20A40.06,40.06,0,0,1,371.57,38a39.73,39.73,0,0,1-2.82,15.09,35.62,35.62,0,0,1-20.06,20A40.57,40.57,0,0,1,333.33,76Zm0-17.56a18.27,18.27,0,0,0,9.82-2.66,19.25,19.25,0,0,0,6.79-7.27A21.44,21.44,0,0,0,352.45,38a21.72,21.72,0,0,0-2.51-10.56,18.86,18.86,0,0,0-6.79-7.21,18.72,18.72,0,0,0-26.39,7.21A22.15,22.15,0,0,0,314.31,38a21.86,21.86,0,0,0,2.45,10.44,18.9,18.9,0,0,0,6.74,7.27A18.28,18.28,0,0,0,333.33,58.41Z"/></g></g></svg>